<?xml version="1.0" encoding="iso-8859-1"?>
<!-- Generator: Adobe Illustrator 19.1.0, SVG Export Plug-In . SVG Version: 6.00 Build 0)  -->
<svg version="1.1" id="Capa_1" xmlns="http://www.w3.org/2000/svg" xmlns:xlink="http://www.w3.org/1999/xlink" x="0px" y="0px"
	 viewBox="0 0 65.895 65.895" style="enable-background:new 0 0 65.895 65.895;" xml:space="preserve">
<path d="M59.904,41.869v-0.014c2.254-0.073,4.068-1.918,4.068-4.19c0-2.317-1.886-4.203-4.203-4.203
	c-0.525,0-1.04,0.106-1.525,0.295c-0.007,0-0.014-0.002-0.021-0.002c-0.773,0-1.399,0.626-1.399,1.399
	c0,0.773,0.626,1.399,1.399,1.399c0.441,0,0.829-0.208,1.086-0.527c0.149-0.042,0.304-0.064,0.461-0.064
	c0.939,0,1.703,0.764,1.703,1.703s-0.764,1.704-1.703,1.704h-9.494c0-7.283,0-14.567,0-21.85c0-3.886,0-7.772,0-11.659
	c0-2.944-1.015-5.543-4.443-5.699c-8.035-0.365-16.165,0-24.208,0c-3.015,0-5.719,0.92-5.869,4.476c-0.132,3.113,0,6.26,0,9.375
	c0,8.452,0,16.904,0,25.356H6.126c-0.939,0-1.703-0.765-1.703-1.704s0.764-1.703,1.703-1.703c0.194,0,0.381,0.043,0.561,0.106
	c0.256,0.335,0.655,0.554,1.108,0.554c0.773,0,1.399-0.626,1.399-1.399c0-0.757-0.602-1.369-1.353-1.394
	c-0.537-0.24-1.121-0.367-1.716-0.367c-2.317,0-4.203,1.886-4.203,4.203c0,2.318,1.886,4.204,4.203,4.204h5.264
	c0,7.175,0,14.351,0,21.526c-1.754,0-3.509,0-5.263,0c-1.609,0-1.611,2.5,0,2.5c15.664,0,31.328,0,46.991,0c2.262,0,4.525,0,6.787,0
	c1.609,0,1.611-2.5,0-2.5c-1.793,0-3.586,0-5.379,0c0-7.176,0-14.351,0-21.526H59.904z M20.582,2.662c3.507-0.318,7.19,0,10.709,0
	c4.191,0,8.382,0,12.573,0c0.684,0,1.486-0.121,2.162,0c1.914,0.344,1.75,1.8,1.75,3.199c0,3.487,0,6.975,0,10.462
	c0,7.682,0,15.364,0,23.046h-29.52c0-6.466,0-12.933,0-19.399c0-4.097,0-8.194,0-12.292C18.255,5.513,17.712,2.922,20.582,2.662z
	 M31.707,41.869c0,7.175,0,14.351,0,21.526c-2.553,0-5.106,0-7.659,0c0-7.176,0-14.351,0-21.526H31.707z M34.207,41.869h7.659
	c0,7.175,0,14.351,0,21.526c-2.553,0-5.106,0-7.659,0C34.207,56.22,34.207,49.044,34.207,41.869z M21.549,41.869
	c0,7.175,0,14.351,0,21.526c-2.553,0-5.106,0-7.659,0c0-7.176,0-14.351,0-21.526H21.549z M52.025,63.395c-2.553,0-5.106,0-7.659,0
	c0-7.176,0-14.351,0-21.526h7.659C52.025,49.044,52.025,56.22,52.025,63.395z"/>
<g>
</g>
<g>
</g>
<g>
</g>
<g>
</g>
<g>
</g>
<g>
</g>
<g>
</g>
<g>
</g>
<g>
</g>
<g>
</g>
<g>
</g>
<g>
</g>
<g>
</g>
<g>
</g>
<g>
</g>
</svg>
