<?xml version="1.0" encoding="utf-8"?>
<!-- Generator: Adobe Illustrator 18.0.0, SVG Export Plug-In . SVG Version: 6.00 Build 0)  -->
<!DOCTYPE svg PUBLIC "-//W3C//DTD SVG 1.1//EN" "http://www.w3.org/Graphics/SVG/1.1/DTD/svg11.dtd">
<svg version="1.1" id="Layer_1" xmlns="http://www.w3.org/2000/svg" xmlns:xlink="http://www.w3.org/1999/xlink" x="0px" y="0px"
	 viewBox="0 0 512 512" enable-background="new 0 0 512 512" xml:space="preserve">
<g>
	<g>
		<g>
			<g>
				<path d="M407.9,460.2c-41.3,0-82.7,0-124,0c-55.7,0-111.4,0-167.1,0c-4.2,0-8.4,0-12.6,0c2.5,2.5,5,5,7.5,7.5
					c0-33.2,0-66.4,0-99.5c0-64.3,0-128.5,0-192.8c0-42.4,0-84.9,0-127.3c0-1.2,0-2.5,0-3.7c-2.5,2.5-5,5-7.5,7.5
					c41.3,0,82.7,0,124,0c55.7,0,111.4,0,167.1,0c4.2,0,8.4,0,12.6,0c-2.5-2.5-5-5-7.5-7.5c0,33.2,0,66.4,0,99.5
					c0,64.3,0,128.5,0,192.8c0,42.4,0,84.9,0,127.3c0,1.2,0,2.5,0,3.7c0,9.7,15,9.7,15,0c0-33.2,0-66.4,0-99.5
					c0-64.3,0-128.5,0-192.8c0-42.4,0-84.9,0-127.3c0-1.2,0-2.5,0-3.7c0-4.1-3.4-7.5-7.5-7.5c-41.3,0-82.7,0-124,0
					c-55.7,0-111.4,0-167.1,0c-4.2,0-8.4,0-12.6,0c-4.1,0-7.5,3.4-7.5,7.5c0,33.2,0,66.4,0,99.5c0,64.3,0,128.5,0,192.8
					c0,42.4,0,84.9,0,127.3c0,1.2,0,2.5,0,3.7c0,4.1,3.4,7.5,7.5,7.5c41.3,0,82.7,0,124,0c55.7,0,111.4,0,167.1,0
					c4.2,0,8.4,0,12.6,0C417.5,475.2,417.5,460.2,407.9,460.2z"/>
			</g>
		</g>
		<g>
			<g>
				<path d="M400.4,16.1c0,30.2,0,60.3,0,90.5c0,63.1,0,126.2,0,189.3c0,54.9,0,109.7,0,164.6c0,11.8,0,23.7,0,35.5
					c0,9.7,15,9.7,15,0c0-30.2,0-60.3,0-90.5c0-63.1,0-126.2,0-189.3c0-54.9,0-109.7,0-164.6c0-11.8,0-23.7,0-35.5
					C415.4,6.4,400.4,6.4,400.4,16.1L400.4,16.1z"/>
			</g>
		</g>
		<g>
			<g>
				<path d="M96.6,16.1c0,30.2,0,60.3,0,90.5c0,63.1,0,126.2,0,189.3c0,54.9,0,109.7,0,164.6c0,11.8,0,23.7,0,35.5
					c0,9.7,15,9.7,15,0c0-30.2,0-60.3,0-90.5c0-63.1,0-126.2,0-189.3c0-54.9,0-109.7,0-164.6c0-11.8,0-23.7,0-35.5
					C111.6,6.4,96.6,6.4,96.6,16.1L96.6,16.1z"/>
			</g>
		</g>
		<g>
			<g>
				<g>
					<g>
						<path d="M98.8,99.7c12.7,12,25.3,24,38,36c3,2.9,7.6,2.9,10.6,0c12.7-12,25.3-24,38-36c-3.5,0-7.1,0-10.6,0
							c12.7,12,25.3,24,38,36c3,2.9,7.6,2.9,10.6,0c12.7-12,25.3-24,38-36c-3.5,0-7.1,0-10.6,0c12.7,12,25.3,24,38,36
							c3,2.9,7.6,2.9,10.6,0c12.7-12,25.3-24,38-36c-3.5,0-7.1,0-10.6,0c12.7,12,25.3,24,38,36c3,2.9,7.6,2.9,10.6,0
							c12.7-12,25.3-24,38-36c7-6.7-3.6-17.3-10.6-10.6c-12.7,12-25.3,24-38,36c3.5,0,7.1,0,10.6,0c-12.7-12-25.3-24-38-36
							c-3-2.9-7.6-2.9-10.6,0c-12.7,12-25.3,24-38,36c3.5,0,7.1,0,10.6,0c-12.7-12-25.3-24-38-36c-3-2.9-7.6-2.9-10.6,0
							c-12.7,12-25.3,24-38,36c3.5,0,7.1,0,10.6,0c-12.7-12-25.3-24-38-36c-3-2.9-7.6-2.9-10.6,0c-12.7,12-25.3,24-38,36
							c3.5,0,7.1,0,10.6,0c-12.7-12-25.3-24-38-36C102.4,82.4,91.8,93,98.8,99.7L98.8,99.7z"/>
					</g>
				</g>
			</g>
		</g>
		<g>
			<g>
				<g>
					<g>
						<path d="M109.4,422.9c12.7-12,25.3-24,38-36c-3.5,0-7.1,0-10.6,0c12.7,12,25.3,24,38,36c3,2.9,7.6,2.9,10.6,0
							c12.7-12,25.3-24,38-36c-3.5,0-7.1,0-10.6,0c12.7,12,25.3,24,38,36c3,2.9,7.6,2.9,10.6,0c12.7-12,25.3-24,38-36
							c-3.5,0-7.1,0-10.6,0c12.7,12,25.3,24,38,36c3,2.9,7.6,2.9,10.6,0c12.7-12,25.3-24,38-36c-3.5,0-7.1,0-10.6,0
							c12.7,12,25.3,24,38,36c7,6.7,17.6-3.9,10.6-10.6c-12.7-12-25.3-24-38-36c-3-2.9-7.6-2.9-10.6,0c-12.7,12-25.3,24-38,36
							c3.5,0,7.1,0,10.6,0c-12.7-12-25.3-24-38-36c-3-2.9-7.6-2.9-10.6,0c-12.7,12-25.3,24-38,36c3.5,0,7.1,0,10.6,0
							c-12.7-12-25.3-24-38-36c-3-2.9-7.6-2.9-10.6,0c-12.7,12-25.3,24-38,36c3.5,0,7.1,0,10.6,0c-12.7-12-25.3-24-38-36
							c-3-2.9-7.6-2.9-10.6,0c-12.7,12-25.3,24-38,36C91.8,419,102.4,429.6,109.4,422.9L109.4,422.9z"/>
					</g>
				</g>
			</g>
		</g>
	</g>
	<g>
		<g>
			<g>
				<g>
					<path d="M165.7,260.7c31.9-30.1,63.7-60.3,95.6-90.4c-3.5,0-7.1,0-10.6,0c31.9,30.1,63.7,60.3,95.6,90.4
						c7,6.6,17.6-3.9,10.6-10.6c-31.9-30.1-63.7-60.3-95.6-90.4c-3-2.9-7.6-2.9-10.6,0c-31.9,30.1-63.7,60.3-95.6,90.4
						C148.1,256.8,158.7,267.4,165.7,260.7L165.7,260.7z"/>
				</g>
			</g>
		</g>
		<g>
			<g>
				<g>
					<path d="M155.1,261.9c31.9,30.1,63.7,60.3,95.6,90.4c3,2.9,7.6,2.9,10.6,0c31.9-30.1,63.7-60.3,95.6-90.4
						c7-6.7-3.6-17.2-10.6-10.6c-31.9,30.1-63.7,60.3-95.6,90.4c3.5,0,7.1,0,10.6,0c-31.9-30.1-63.7-60.3-95.6-90.4
						C158.7,244.6,148.1,255.2,155.1,261.9L155.1,261.9z"/>
				</g>
			</g>
		</g>
	</g>
	<g>
		<g>
			<g>
				<g>
					<path d="M213.6,261.6c15.9-15,31.8-30.1,47.7-45.1c-3.5,0-7.1,0-10.6,0c15.9,15,31.8,30.1,47.7,45.1c7,6.6,17.6-3.9,10.6-10.6
						c-15.9-15-31.8-30.1-47.7-45.1c-3-2.9-7.6-2.9-10.6,0c-15.9,15-31.8,30.1-47.7,45.1C196,257.6,206.6,268.2,213.6,261.6
						L213.6,261.6z"/>
				</g>
			</g>
		</g>
		<g>
			<g>
				<g>
					<path d="M203,262.2c15.9,15,31.8,30.1,47.7,45.1c3,2.9,7.6,2.9,10.6,0c15.9-15,31.8-30.1,47.7-45.1c7-6.7-3.6-17.2-10.6-10.6
						c-15.9,15-31.8,30.1-47.7,45.1c3.5,0,7.1,0,10.6,0c-15.9-15-31.8-30.1-47.7-45.1C206.6,244.9,196,255.5,203,262.2L203,262.2z"
						/>
				</g>
			</g>
		</g>
	</g>
</g>
</svg>
