<?xml version="1.0" encoding="iso-8859-1"?>
<!-- Generator: Adobe Illustrator 18.1.1, SVG Export Plug-In . SVG Version: 6.00 Build 0)  -->
<svg version="1.1" id="Capa_1" xmlns="http://www.w3.org/2000/svg" xmlns:xlink="http://www.w3.org/1999/xlink" x="0px" y="0px"
	 viewBox="0 0 61.882 61.882" style="enable-background:new 0 0 61.882 61.882;" xml:space="preserve">
<g>
	<circle cx="4.614" cy="22.747" r="0.974"/>
	<circle cx="57.524" cy="22.747" r="0.974"/>
	<path d="M8.612,17.251h43.859l0.795-0.079l0.106-0.778c0.014-0.096,0.024-0.192,0.024-0.294c0-1.673-1.809-4.163-6.791-4.163H34.65
		c0.035-0.204,0.054-0.412,0.054-0.621c0-2.019-1.643-3.661-3.661-3.661s-3.661,1.642-3.661,3.661c0,0.21,0.018,0.417,0.054,0.621
		H17.149c-5.187,0-8.672,2.152-8.672,4.163c0,0.111,0.013,0.216,0.033,0.366L8.612,17.251z M17.149,13.739h13.273l-0.931-1.398
		c-0.203-0.305-0.31-0.659-0.31-1.023c0-1.026,0.834-1.861,1.86-1.861c1.026,0,1.86,0.835,1.86,1.861
		c0,0.365-0.107,0.718-0.31,1.021l-0.934,1.399h14.946c2.856,0,4.249,0.914,4.753,1.713H10.783
		C11.679,14.714,13.777,13.739,17.149,13.739z"/>
	<path d="M61.456,21.039c-0.842-1.373-2.562-1.647-2.756-1.674L3.296,19.357l-0.123,0.008c-0.193,0.027-1.914,0.301-2.755,1.674
		c-0.351,0.572-0.665,1.554-0.138,3.058c0.046,0.101,1.177,2.473,4.55,2.473l4.954-0.086c0.198,7.013,0.97,25.601,3.584,27.562
		l0.24,0.18h34.656l0.24-0.18c2.612-1.96,3.384-20.548,3.582-27.561l4.972,0.086c3.356,0,4.487-2.372,4.567-2.554
		C62.12,22.593,61.806,21.612,61.456,21.039z M59.945,23.368c-0.125,0.224-0.881,1.402-2.87,1.402l-6.74-0.116l-0.022,0.893
		c-0.293,11.638-1.409,24.853-2.736,26.878H14.298c-1.328-2.024-2.445-15.239-2.738-26.879l-0.023-0.893L4.815,24.77
		c-2.142,0-2.858-1.345-2.866-1.345c-0.001,0-0.001,0,0,0c-0.211-0.606-0.211-1.091,0.001-1.44c0.318-0.527,1.092-0.767,1.42-0.828
		h55.133c0.334,0.062,1.104,0.303,1.421,0.828C60.128,22.324,60.135,22.789,59.945,23.368z"/>
</g>
<g>
</g>
<g>
</g>
<g>
</g>
<g>
</g>
<g>
</g>
<g>
</g>
<g>
</g>
<g>
</g>
<g>
</g>
<g>
</g>
<g>
</g>
<g>
</g>
<g>
</g>
<g>
</g>
<g>
</g>
</svg>
