<?xml version="1.0" encoding="iso-8859-1"?>
<!-- Generator: Adobe Illustrator 20.0.0, SVG Export Plug-In . SVG Version: 6.00 Build 0)  -->
<svg version="1.1" id="Layer_1_1_" xmlns="http://www.w3.org/2000/svg" xmlns:xlink="http://www.w3.org/1999/xlink" x="0px" y="0px"
	 viewBox="0 0 64 64" style="enable-background:new 0 0 64 64;" xml:space="preserve">
<g id="Guide">
	<g>
	</g>
	<g>
	</g>
	<g>
	</g>
	<g>
	</g>
	<g>
	</g>
	<g>
	</g>
	<g>
	</g>
	<g>
	</g>
	<g>
	</g>
	<g>
	</g>
	<g>
	</g>
	<g>
	</g>
	<g>
	</g>
	<g>
	</g>
	<g>
	</g>
	<g>
	</g>
	<g>
	</g>
	<g>
	</g>
	<g>
	</g>
	<g>
	</g>
	<g>
	</g>
	<g>
	</g>
	<g>
	</g>
	<g>
	</g>
	<g>
	</g>
	<g>
	</g>
	<g>
	</g>
	<g>
	</g>
	<g>
	</g>
	<g>
	</g>
	<g>
	</g>
	<g>
	</g>
	<g>
	</g>
	<g>
	</g>
	<g>
	</g>
	<g>
	</g>
</g>
<path d="M59,23h-7v-4h2c0.552,0,1-0.447,1-1v-8c0-0.553-0.448-1-1-1H36c-0.552,0-1,0.447-1,1v8c0,0.553,0.448,1,1,1h2v4h-7
	c-2.757,0-5,2.243-5,5v14h-2V25V15c0-2.414-1.721-4.434-4-4.899V7c0-0.553-0.448-1-1-1h-1V1c0-0.553-0.448-1-1-1h-6
	c-0.552,0-1,0.447-1,1v5H9C8.448,6,8,6.447,8,7v3.101C5.721,10.566,4,12.586,4,15v27H1c-0.552,0-1,0.447-1,1v6c0,0.553,0.448,1,1,1
	h1v3v6c0,2.757,2.243,5,5,5h20h32c2.757,0,5-2.243,5-5V28C64,25.243,61.757,23,59,23z M37,11h16v6h-2H39h-2V11z M40,19h10v4H40V19z
	 M22,42H11V26h11V42z M12,2h4v4h-4V2z M10,8h1h6h1v2h-8V8z M6,15c0-1.654,1.346-3,3-3h10c1.654,0,3,1.346,3,3v9H10
	c-0.552,0-1,0.447-1,1v17H6V15z M2,44h3h5h13h9v4h-1h-2v-2h-2v2h-2v-2h-2v2h-2v-2h-2v2H3H2V44z M4,54h12v4H4V54z M7,62
	c-1.302,0-2.402-0.839-2.816-2H17c0.552,0,1-0.447,1-1v-6c0-0.553-0.448-1-1-1H4v-2h26v9c0,1.654-1.346,3-3,3H7z M62,59
	c0,1.654-1.346,3-3,3H30.974C31.609,61.162,32,60.13,32,59v-9h1c0.552,0,1-0.447,1-1v-6c0-0.553-0.448-1-1-1h-5V28
	c0-1.302,0.839-2.402,2-2.816V38h2V25h2v13h2V25h2v13h2V25h2v13h2V25h2v13h2V25h2v13h2V25h2v13h2V25h2v13h2V25.184
	c1.161,0.414,2,1.514,2,2.816V59z"/>
<path d="M53,41H38c-0.552,0-1,0.447-1,1v16c0,0.553,0.448,1,1,1h15c0.552,0,1-0.447,1-1V42C54,41.447,53.552,41,53,41z M52,57H39V43
	h13V57z"/>
<rect x="13" y="28" width="7" height="2"/>
<rect x="13" y="32" width="7" height="2"/>
<rect x="13" y="36" width="7" height="2"/>
<rect x="40" y="13" width="2" height="2"/>
<rect x="44" y="13" width="2" height="2"/>
<rect x="48" y="13" width="2" height="2"/>
</svg>
