<?xml version="1.0" ?><svg data-name="Layer 1" id="Layer_1" viewBox="0 0 32 32" xmlns="http://www.w3.org/2000/svg"><title/><path d="M7.92,9H3V27a2,2,0,0,0,2,2H26a2,2,0,0,0,2-2V9H7.92Zm14,1L21,15.92A1.12,1.12,0,0,1,20,17H11a1.12,1.12,0,0,1-1-1.08L9.08,10H21.92ZM26,28H5a1,1,0,0,1-1-1V24H27v3A1,1,0,0,1,26,28Zm1-18V23H4V10H8.07L9,16.08A2.07,2.07,0,0,0,11,18h9a2.07,2.07,0,0,0,2-1.92L22.93,10H27Z"/><path d="M15.5,3C9.44,3,3,4.23,3,6.5V8H28V6.5C28,4.23,21.56,3,15.5,3ZM27,7H4V6.5C4,5.65,8.06,4,15.5,4S27,5.65,27,6.5V7Z"/><path d="M18,15a1.5,1.5,0,1,0-1.5-1.5A1.5,1.5,0,0,0,18,15Zm0-2a0.5,0.5,0,1,1-.5.5A0.5,0.5,0,0,1,18,13Z"/><path d="M13,15a1.5,1.5,0,1,0-1.5-1.5A1.5,1.5,0,0,0,13,15Zm0-2a0.5,0.5,0,1,1-.5.5A0.5,0.5,0,0,1,13,13Z"/></svg>