<?xml version="1.0" encoding="iso-8859-1"?>
<!-- Generator: Adobe Illustrator 19.1.0, SVG Export Plug-In . SVG Version: 6.00 Build 0)  -->
<svg version="1.1" id="Capa_1" xmlns="http://www.w3.org/2000/svg" xmlns:xlink="http://www.w3.org/1999/xlink" x="0px" y="0px"
	 viewBox="0 0 62.426 62.426" style="enable-background:new 0 0 62.426 62.426;" xml:space="preserve">
<g>
	<path d="M58.176,6.355H4.25C1.907,6.355,0,8.262,0,10.605V51.82c0,2.344,1.907,4.25,4.25,4.25h53.926c2.343,0,4.25-1.906,4.25-4.25
		V10.605C62.426,8.262,60.519,6.355,58.176,6.355z M4.25,8.855h53.926c0.965,0,1.75,0.785,1.75,1.75v30.674H2.5V10.605
		C2.5,9.641,3.285,8.855,4.25,8.855z M58.176,53.57H4.25c-0.965,0-1.75-0.785-1.75-1.75v-8.041h57.426v8.041
		C59.926,52.785,59.141,53.57,58.176,53.57z"/>
	<circle cx="16.16" cy="48.789" r="2.503"/>
	<circle cx="46.013" cy="48.789" r="2.503"/>
	<path d="M9.381,30.965c-0.479,0.479-0.957,0.957-1.436,1.436c-0.683,0.683,0.377,1.744,1.061,1.061
		c0.478-0.478,0.957-0.957,1.435-1.435c1.545,1.309,3.54,2.103,5.719,2.103c2.173,0,4.163-0.789,5.707-2.091
		c0.48,0.48,0.961,0.961,1.441,1.441c0.683,0.683,1.744-0.377,1.061-1.061c-0.48-0.48-0.96-0.96-1.441-1.441
		c1.306-1.544,2.097-3.537,2.097-5.713c0-2.174-0.789-4.165-2.093-5.708c0.481-0.481,0.962-0.962,1.443-1.443
		c0.683-0.683-0.377-1.744-1.061-1.061c-0.481,0.481-0.962,0.962-1.443,1.443c-1.544-1.305-3.536-2.096-5.712-2.096
		c-2.171,0-4.159,0.787-5.701,2.087C9.979,18.008,9.5,17.529,9.021,17.05c-0.683-0.683-1.744,0.377-1.061,1.061
		c0.479,0.479,0.958,0.958,1.437,1.437c-1.308,1.545-2.101,3.54-2.101,5.718C7.296,27.435,8.082,29.423,9.381,30.965z M16.16,18.9
		c1.486,0,2.851,0.516,3.935,1.372c-0.456,0.456-0.912,0.912-1.368,1.368c-0.683,0.683,0.377,1.744,1.061,1.061
		c0.456-0.456,0.911-0.911,1.367-1.367c0.855,1.084,1.369,2.448,1.369,3.932c0,1.486-0.516,2.852-1.373,3.937
		c-0.457-0.457-0.913-0.913-1.37-1.37c-0.683-0.683-1.744,0.377-1.061,1.061c0.456,0.456,0.913,0.913,1.369,1.369
		c-1.083,0.854-2.446,1.368-3.93,1.368c-1.49,0-2.858-0.518-3.944-1.379c0.459-0.459,0.918-0.917,1.376-1.376
		c0.683-0.683-0.377-1.744-1.061-1.061c-0.458,0.458-0.916,0.916-1.374,1.374c-0.851-1.082-1.363-2.442-1.363-3.922
		c0-1.489,0.518-2.857,1.377-3.942c0.458,0.458,0.916,0.916,1.374,1.374c0.683,0.683,1.744-0.377,1.061-1.061
		c-0.457-0.457-0.914-0.914-1.372-1.372C13.318,19.413,14.679,18.9,16.16,18.9z"/>
	<path d="M39.238,30.97c-0.477,0.477-0.954,0.954-1.431,1.431c-0.683,0.683,0.377,1.744,1.061,1.061
		c0.477-0.477,0.954-0.954,1.43-1.43c1.544,1.306,3.537,2.098,5.714,2.098c2.176,0,4.168-0.791,5.712-2.096
		c0.482,0.482,0.964,0.964,1.446,1.446c0.683,0.683,1.744-0.377,1.061-1.061c-0.482-0.482-0.964-0.964-1.446-1.446
		c1.303-1.544,2.092-3.534,2.092-5.708c0-2.171-0.787-4.16-2.088-5.703c0.483-0.483,0.966-0.966,1.448-1.448
		c0.683-0.683-0.377-1.744-1.061-1.061c-0.483,0.483-0.965,0.965-1.448,1.448c-1.545-1.308-3.539-2.101-5.717-2.101
		c-2.168,0-4.154,0.785-5.696,2.082c-0.478-0.478-0.955-0.955-1.433-1.433c-0.683-0.683-1.744,0.377-1.061,1.061
		c0.477,0.477,0.955,0.955,1.432,1.432c-1.311,1.546-2.106,3.542-2.106,5.723C37.148,27.438,37.937,29.427,39.238,30.97z
		 M46.013,18.9c1.488,0,2.856,0.517,3.941,1.377c-0.454,0.454-0.909,0.909-1.363,1.363c-0.683,0.683,0.377,1.744,1.061,1.061
		c0.454-0.454,0.908-0.908,1.361-1.361c0.852,1.083,1.365,2.444,1.365,3.926c0,1.484-0.515,2.847-1.369,3.931
		c-0.455-0.455-0.909-0.909-1.364-1.364c-0.683-0.683-1.744,0.377-1.061,1.061c0.455,0.455,0.91,0.91,1.365,1.365
		c-1.084,0.857-2.45,1.372-3.935,1.372c-1.487,0-2.853-0.517-3.938-1.374c0.46-0.46,0.92-0.92,1.381-1.381
		c0.683-0.683-0.377-1.744-1.061-1.061c-0.46,0.46-0.92,0.92-1.379,1.379c-0.853-1.083-1.367-2.446-1.367-3.928
		c0-1.492,0.519-2.862,1.381-3.948c0.46,0.46,0.92,0.92,1.38,1.38c0.683,0.683,1.744-0.377,1.061-1.061
		c-0.459-0.459-0.917-0.917-1.376-1.376C43.176,19.411,44.534,18.9,46.013,18.9z"/>
</g>
<g>
</g>
<g>
</g>
<g>
</g>
<g>
</g>
<g>
</g>
<g>
</g>
<g>
</g>
<g>
</g>
<g>
</g>
<g>
</g>
<g>
</g>
<g>
</g>
<g>
</g>
<g>
</g>
<g>
</g>
</svg>
