<?xml version='1.0' encoding='iso-8859-1'?>
<svg version="1.1" xmlns="http://www.w3.org/2000/svg" viewBox="0 0 45.651 45.651" xmlns:xlink="http://www.w3.org/1999/xlink" enable-background="new 0 0 45.651 45.651">
  <g>
    <g>
      <path d="m22.825,32.825c-2.762,0-5,2.238-5,5s2.238,5 5,5 5-2.238 5-5-2.238-5-5-5zm0,8c-1.656,0-3-1.343-3-3s1.344-3 3-3c1.656,0 3,1.343 3,3s-1.344,3-3,3z"/>
    </g>
  </g>
  <g>
    <g>
      <path d="m32.025,26.013c-0.003-0.002-0.006-0.004-0.009-0.005l.01-.012c-2.543-1.98-5.729-3.171-9.201-3.171-3.47,0-6.655,1.19-9.196,3.167-0.001,0.001-0.002,0.002-0.003,0.002 0,0.001-0.001,0.001-0.002,0.001 0,0 0,0 0,0.001-1.521,1.19-1.789,3.39-0.6,4.911 1.191,1.524 3.391,1.792 4.913,0.602 0.007-0.006 0.013-0.012 0.019-0.018 1.35-1.039 3.033-1.666 4.869-1.666 1.839,0 3.527,0.629 4.878,1.672l-.009,.012c0.008,0.006 0.012,0.013 0.02,0.018 1.522,1.19 3.723,0.922 4.913-0.602 1.19-1.521 0.922-3.721-0.602-4.912zm-.973,3.682c-0.51,0.651-1.451,0.768-2.104,0.259l.011-.015c-1.694-1.319-3.819-2.113-6.134-2.113-2.299,0-4.41,0.785-6.1,2.09l-.002-.003c-0.003,0.003-0.006,0.006-0.008,0.009-0.008,0.006-0.017,0.012-0.024,0.018l.001,.002c-0.652,0.499-1.585,0.384-2.092-0.265-0.511-0.652-0.396-1.596 0.258-2.105 0.007-0.006 0.016-0.007 0.023-0.013l-.003-.005c2.198-1.703 4.95-2.727 7.946-2.727 3.001,0 5.756,1.027 7.957,2.735l-.014,.016c0.008,0.006 0.018,0.007 0.025,0.013 0.654,0.508 0.769,1.451 0.26,2.104zm7.129-11.557c-0.007-0.005-0.015-0.009-0.022-0.014l-.019,.023c-0.003-0.001-0.005-0.003-0.007-0.005l.026-.033c-4.237-3.3-9.549-5.284-15.335-5.284-5.785,0-11.096,1.983-15.332,5.282l-.001-.002c-0.007,0.005-0.016,0.009-0.023,0.014-1.523,1.192-1.792,3.391-0.601,4.913 1.191,1.524 3.391,1.792 4.913,0.602 0.003-0.002 0.006-0.005 0.009-0.008 3.049-2.373 6.871-3.801 11.035-3.801 4.162,0 7.984,1.427 11.033,3.799l-.008,.01c0.007,0.006 0.012,0.013 0.019,0.018 1.523,1.19 3.723,0.922 4.913-0.602 1.192-1.521 0.924-3.721-0.6-4.912zm-.973,3.682c-0.511,0.652-1.453,0.768-2.106,0.258-0.007-0.005-0.01-0.012-0.016-0.018l.006-.007c-3.39-2.64-7.639-4.227-12.268-4.227-4.623,0-8.867,1.584-12.254,4.218l-.004-.006c-0.008,0.006-0.01,0.016-0.018,0.021-0.652,0.51-1.596,0.395-2.106-0.258-0.511-0.652-0.396-1.596 0.258-2.105 0.007-0.006 0.016-0.007 0.023-0.013v-0.001c3.896-3.033 8.779-4.856 14.1-4.856 5.323,0 10.21,1.825 14.107,4.861l.021-.026c0.001,0.001 0.002,0.002 0.002,0.003l-.029,.038c0.007,0.006 0.017,0.007 0.024,0.013 0.654,0.509 0.77,1.452 0.26,2.105zm7.098-11.62c-0.007-0.005-0.016-0.009-0.022-0.014l-.023,.028-1.632-1.244c-5.633-3.873-12.452-6.145-19.804-6.145-7.352,0-14.172,2.271-19.804,6.145l-1.638,1.219-.017-.021c-0.007,0.005-0.016,0.009-0.023,0.014-1.523,1.192-1.792,3.391-0.601,4.913 1.184,1.514 3.363,1.786 4.885,0.619l.011,.015c4.745-3.696 10.706-5.903 17.187-5.903 6.48,0 12.441,2.207 17.186,5.903l.001-.002c1.523,1.175 3.709,0.904 4.896-0.613 1.19-1.523 0.922-3.722-0.602-4.914zm-.973,3.682c-0.511,0.652-1.453,0.768-2.106,0.258-0.007-0.006-0.01-0.015-0.018-0.021l-.005,.007c-5.078-3.944-11.451-6.3-18.379-6.3-6.924,0-13.292,2.354-18.369,6.293l-.014-.019c-0.008,0.006-0.01,0.016-0.018,0.021-0.652,0.51-1.596,0.395-2.106-0.258-0.506-0.647-0.394-1.576 0.243-2.09l.007,.009c5.593-4.355 12.618-6.957 20.256-6.957 7.625,0 14.639,2.594 20.227,6.937l-.001,.002c0.004,0.003 0.008,0.005 0.013,0.007 0.005,0.004 0.012,0.008 0.017,0.012 0.646,0.511 0.761,1.449 0.253,2.099z"/>
    </g>
  </g>
</svg>
