<?xml version="1.0" encoding="UTF-8" standalone="no"?>
<svg
   xmlns:dc="http://purl.org/dc/elements/1.1/"
   xmlns:cc="http://creativecommons.org/ns#"
   xmlns:rdf="http://www.w3.org/1999/02/22-rdf-syntax-ns#"
   xmlns:svg="http://www.w3.org/2000/svg"
   xmlns="http://www.w3.org/2000/svg"
   xmlns:sodipodi="http://sodipodi.sourceforge.net/DTD/sodipodi-0.dtd"
   xmlns:inkscape="http://www.inkscape.org/namespaces/inkscape"
   id="Outline"
   viewBox="0 0 24 24"
   version="1.1"
   sodipodi:docname="fi-rr-cross-small.svg"
   inkscape:version="1.0.2-2 (e86c870879, 2021-01-15)">
  <metadata
     id="metadata30">
    <rdf:RDF>
      <cc:Work
         rdf:about="">
        <dc:format>image/svg+xml</dc:format>
        <dc:type
           rdf:resource="http://purl.org/dc/dcmitype/StillImage" />
        <dc:title>181 cross small</dc:title>
      </cc:Work>
    </rdf:RDF>
  </metadata>
  <defs
     id="defs28" />
  <sodipodi:namedview
     pagecolor="#ffffff"
     bordercolor="#666666"
     borderopacity="1"
     objecttolerance="10"
     gridtolerance="10"
     guidetolerance="10"
     inkscape:pageopacity="0"
     inkscape:pageshadow="2"
     inkscape:window-width="1920"
     inkscape:window-height="1001"
     id="namedview26"
     showgrid="false"
     inkscape:zoom="34.583333"
     inkscape:cx="12.586237"
     inkscape:cy="11.160776"
     inkscape:window-x="-9"
     inkscape:window-y="-9"
     inkscape:window-maximized="1"
     inkscape:current-layer="Outline"
     inkscape:document-rotation="0" />
  <title
     id="title21">181 cross small</title>
  <path
     d="m 16.767363,7.2326368 v 0 a 0.79456053,0.79456051 0 0 0 -1.123509,0 L 12.000001,10.876492 8.3561452,7.2326368 a 0.79456053,0.79456051 0 0 0 -1.1235086,0 v 0 a 0.79456053,0.79456051 0 0 0 0,1.1235086 L 10.876491,12 7.2326366,15.643855 a 0.79456053,0.79456051 0 0 0 0,1.123508 v 0 a 0.79456053,0.79456051 0 0 0 1.1235086,0 l 3.6438558,-3.643854 3.643853,3.643854 a 0.79456053,0.79456051 0 0 0 1.123509,0 v 0 a 0.79456053,0.79456051 0 0 0 0,-1.123508 L 13.123509,12 16.767363,8.3561454 a 0.79456053,0.79456051 0 0 0 0,-1.1235086 z"
     id="path23"
     style="stroke-width:0.79456" />
</svg>
